<svg width="42" height="48" viewBox="0 0 42 48" fill="none" xmlns="http://www.w3.org/2000/svg">
<path d="M30.4512 38.21C29.3908 38.1867 28.5379 37.3 28.5379 36.2267C28.5148 35.1533 29.3677 34.269 30.4281 34.2457H30.4512C31.5346 34.2457 32.4105 35.1323 32.4105 36.2267C32.4105 37.3233 31.5346 38.21 30.4512 38.21ZM21.0461 29.6233C19.9857 29.6723 19.1098 28.83 19.0637 27.759C19.0637 26.6857 19.8935 25.799 20.9539 25.75C21.9912 25.75 22.8441 26.569 22.8672 27.6167C22.9133 28.6923 22.0834 29.579 21.0461 29.6233ZM21.0461 38.0933C19.9857 38.1423 19.1098 37.3 19.0637 36.2267C19.0637 35.1533 19.8935 34.269 20.9539 34.22C21.9912 34.22 22.8441 35.039 22.8672 36.089C22.9133 37.1623 22.0834 38.049 21.0461 38.0933ZM11.5719 29.6233C10.5115 29.6723 9.63556 28.83 9.58946 27.759C9.58946 26.6857 10.4193 25.799 11.4797 25.75C12.517 25.75 13.3699 26.569 13.393 27.6167C13.4391 28.6923 12.6092 29.579 11.5719 29.6233ZM11.5488 38.0933C10.4885 38.1423 9.61251 37.3 9.56641 36.2267C9.56641 35.1533 10.3963 34.269 11.4566 34.22C12.494 34.22 13.3469 35.039 13.3699 36.089C13.416 37.1623 12.5862 38.049 11.5488 38.0933ZM28.5609 27.7357C28.5609 26.6623 29.3908 25.799 30.4512 25.7757C31.4885 25.7757 32.3183 26.6133 32.3644 27.6423C32.3875 28.7157 31.5576 29.6023 30.5203 29.6233C29.4599 29.6467 28.584 28.83 28.5609 27.759V27.7357ZM0 17.5997V35.3633C0 42.7367 4.65642 47.3333 11.9638 47.3333H30.0132C37.3897 47.3333 42 42.83 42 35.5057V17.5997H0Z" fill="#D1D5DB"/>
<path d="M0.0078125 17.5995C0.0377796 16.2298 0.153038 13.5115 0.369723 12.6365C1.4762 7.71546 5.23361 4.58879 10.6046 4.14313H31.3972C36.7221 4.61213 40.5256 7.75979 41.6321 12.6365C41.8465 13.4881 41.9617 16.2275 41.9917 17.5995H0.0078125Z" fill="#4B5563"/>
<path d="M12.378 11.3767C13.3923 11.3767 14.153 10.609 14.153 9.58002V2.46569C14.153 1.43669 13.3923 0.666687 12.378 0.666687C11.3637 0.666687 10.603 1.43669 10.603 2.46569V9.58002C10.603 10.609 11.3637 11.3767 12.378 11.3767Z" fill="#D1D5DB"/>
<path d="M29.6215 11.3767C30.6127 11.3767 31.3965 10.609 31.3965 9.58002V2.46569C31.3965 1.43669 30.6127 0.666687 29.6215 0.666687C28.6073 0.666687 27.8466 1.43669 27.8466 2.46569V9.58002C27.8466 10.609 28.6073 11.3767 29.6215 11.3767Z" fill="#D1D5DB"/>
</svg>
