<svg width="177" height="49" viewBox="0 0 177 49" fill="none" xmlns="http://www.w3.org/2000/svg">
<path d="M41.25 5.15625C42.3542 5.15625 43.4167 5.61458 44.4375 6.53125C45.4792 7.44792 46 8.46875 46 9.59375C46 10.7188 45.7188 12.1875 45.1562 14C44.5938 15.7917 43.8021 17.7083 42.7812 19.75C41.7812 21.7708 40.5521 23.875 39.0938 26.0625C37.6562 28.2292 36.0833 30.3438 34.375 32.4062C32.6875 34.4479 30.8229 36.3958 28.7812 38.25C26.7604 40.0833 24.7083 41.6875 22.625 43.0625C18.0833 46.0625 13.6458 47.5625 9.3125 47.5625C7.8125 47.5625 6.47917 47.1667 5.3125 46.375C4.14583 45.5833 3.23958 44.8021 2.59375 44.0312C1.11458 42.2604 0.375 39.8125 0.375 36.6875C0.375 33.5417 1.40625 29.8542 3.46875 25.625C5.55208 21.3958 8.38542 17.4062 11.9688 13.6562C15.5729 9.88542 19.6042 6.80208 24.0625 4.40625C28.5208 1.98958 32.7604 0.78125 36.7812 0.78125C37.5729 0.78125 38.3229 0.958333 39.0312 1.3125C39.7396 1.66667 40.0938 2.08333 40.0938 2.5625C40.0938 3.02083 39.9792 3.40625 39.75 3.71875C39.5208 4.01042 39.3021 4.33333 39.0938 4.6875C38.8854 5.02083 38.7083 5.26042 38.5625 5.40625C39.25 5.23958 40.1458 5.15625 41.25 5.15625ZM29.5938 19.5938C29.5938 20.0104 29.4479 20.2188 29.1562 20.2188C28.8646 20.2188 28.2604 19.7188 27.3438 18.7188C26.4271 17.6979 25.9688 16.8438 25.9688 16.1562C25.9688 14.5521 27.0417 12.7292 29.1875 10.6875C31.3542 8.64583 33.7604 7.09375 36.4062 6.03125C33.4896 6.19792 30.1042 7.4375 26.25 9.75C22.3958 12.0625 19.0208 14.8542 16.125 18.125C13.2292 21.375 10.8854 24.7708 9.09375 28.3125C7.32292 31.8542 6.4375 34.7292 6.4375 36.9375C6.4375 38.2917 6.73958 39.4583 7.34375 40.4375C7.94792 41.3958 8.96875 41.875 10.4062 41.875C11.8646 41.875 13.6146 41.375 15.6562 40.375C17.6979 39.375 19.6875 38.0625 21.625 36.4375C28.2917 30.7917 33.5 24.5208 37.25 17.625C38.7708 14.7917 39.5312 12.8333 39.5312 11.75C39.5312 11.3125 39.3854 11.0938 39.0938 11.0938C38.2396 11.0938 37.0312 11.6458 35.4688 12.75C33.9062 13.8333 32.5208 15.0312 31.3125 16.3438C30.1042 17.6562 29.5 18.6042 29.5 19.1875L29.5938 19.5938ZM63.7188 0.09375C64.7188 0.09375 65.5938 0.395833 66.3438 1C67.1146 1.58333 67.5 2.45833 67.5 3.625C67.5 4.79167 66.8542 6.625 65.5625 9.125C64.2708 11.6042 62.7188 14.1458 60.9062 16.75C59.0938 19.3333 57.0417 22.0833 54.75 25C51.125 29.625 47.6458 33.7812 44.3125 37.4688C44.2917 37.7188 44.1979 38.1875 44.0312 38.875C43.8854 39.5417 43.8125 40.2188 43.8125 40.9062C43.8125 41.5938 44.125 42.2188 44.75 42.7812C45.3958 43.3229 46.1875 43.5938 47.125 43.5938C48.0625 43.5938 49.0625 43.2604 50.125 42.5938C51.2083 41.9271 52.1458 41.1875 52.9375 40.375C55.0208 38.2292 56.3125 37.1562 56.8125 37.1562C57.3125 37.1562 57.5625 37.9167 57.5625 39.4375V40.0625C57.5625 40.875 57.4167 41.4688 57.125 41.8438C55.375 43.9896 53.4062 45.5938 51.2188 46.6562C49.0312 47.6979 46.9583 48.2188 45 48.2188C43.0417 48.2188 41.5521 47.625 40.5312 46.4375C39.5104 45.2292 39 43.5833 39 41.5C39 37.4375 40.0833 32.6667 42.25 27.1875C44.4375 21.6875 46.8958 17.0104 49.625 13.1562C55.7708 4.44792 60.4688 0.09375 63.7188 0.09375ZM62.3125 5.28125C62.3125 4.96875 62.2083 4.8125 62 4.8125C61.2708 4.8125 59.3542 6.89583 56.25 11.0625C53.1458 15.2292 50.8958 18.5521 49.5 21.0312C48.125 23.5104 46.8229 26.625 45.5938 30.375C48.0521 27.4583 51.4479 22.9167 55.7812 16.75C60.1354 10.5625 62.3125 6.73958 62.3125 5.28125ZM75.5312 23.1875C76.1562 23.1875 76.7917 23.4688 77.4375 24.0312C78.1042 24.5938 78.4375 25.4583 78.4375 26.625C78.4375 27.7708 78.0312 29.2708 77.2188 31.125C76.4062 32.9583 75.2917 34.8333 73.875 36.75C72.4583 38.6458 70.8958 40.4375 69.1875 42.125C67.5 43.7917 65.6667 45.1667 63.6875 46.25C61.7292 47.3125 59.9479 47.8438 58.3438 47.8438C56.7396 47.8438 55.4479 47.3438 54.4688 46.3438C53.5104 45.3229 53.0312 43.9167 53.0312 42.125C53.0312 40.3125 53.4688 38.3125 54.3438 36.125C55.2396 33.9375 56.3854 32.0104 57.7812 30.3438C59.1771 28.6562 60.6875 27.1458 62.3125 25.8125C65.7083 23.0833 68.6875 21.7188 71.25 21.7188C72.3958 21.7188 73.2604 22 73.8438 22.5625C74.0521 22.75 74.1562 22.9167 74.1562 23.0625V23.25C74.4479 23.2083 74.9062 23.1875 75.5312 23.1875ZM72.375 27.3438H72.1562C71.4271 27.3438 71.0625 26.8125 71.0625 25.75C69.5417 26.25 67.9479 27.125 66.2812 28.375C64.6146 29.625 63.125 31.1042 61.8125 32.8125C59.1458 36.2292 57.7917 39.1146 57.75 41.4688C57.75 42.6354 58.1771 43.2188 59.0312 43.2188C59.8854 43.2188 61.1562 42.6562 62.8438 41.5312C64.5312 40.4062 66.1979 38.8021 67.8438 36.7188C69.5104 34.6354 70.75 32.8333 71.5625 31.3125C72.3958 29.7708 72.8125 28.7292 72.8125 28.1875C72.8125 27.625 72.6667 27.3438 72.375 27.3438ZM103.656 0.09375C104.656 0.09375 105.531 0.395833 106.281 1C107.052 1.58333 107.438 2.45833 107.438 3.625C107.438 4.79167 106.792 6.625 105.5 9.125C104.208 11.6042 102.656 14.1458 100.844 16.75C99.0312 19.3333 96.9792 22.0833 94.6875 25C91.0625 29.625 87.5833 33.7812 84.25 37.4688C84.2292 37.7188 84.1354 38.1875 83.9688 38.875C83.8229 39.5417 83.75 40.2188 83.75 40.9062C83.75 41.5938 84.0625 42.2188 84.6875 42.7812C85.3333 43.3229 86.125 43.5938 87.0625 43.5938C88 43.5938 89 43.2604 90.0625 42.5938C91.1458 41.9271 92.0833 41.1875 92.875 40.375C94.9583 38.2292 96.25 37.1562 96.75 37.1562C97.25 37.1562 97.5 37.9167 97.5 39.4375V40.0625C97.5 40.875 97.3542 41.4688 97.0625 41.8438C95.3125 43.9896 93.3438 45.5938 91.1562 46.6562C88.9688 47.6979 86.8958 48.2188 84.9375 48.2188C82.9792 48.2188 81.4896 47.625 80.4688 46.4375C79.4479 45.2292 78.9375 43.5833 78.9375 41.5C78.9375 37.4375 80.0208 32.6667 82.1875 27.1875C84.375 21.6875 86.8333 17.0104 89.5625 13.1562C95.7083 4.44792 100.406 0.09375 103.656 0.09375ZM102.25 5.28125C102.25 4.96875 102.146 4.8125 101.938 4.8125C101.208 4.8125 99.2917 6.89583 96.1875 11.0625C93.0833 15.2292 90.8333 18.5521 89.4375 21.0312C88.0625 23.5104 86.7604 26.625 85.5312 30.375C87.9896 27.4583 91.3854 22.9167 95.7188 16.75C100.073 10.5625 102.25 6.73958 102.25 5.28125ZM118.094 23.25C119.677 23.25 120.469 23.7917 120.469 24.875C120.469 25.4583 120.333 25.8854 120.062 26.1562C119.792 26.4271 119.208 27.3333 118.312 28.875C117.438 30.3958 116.458 32.3542 115.375 34.75C114.312 37.125 113.625 39.1562 113.312 40.8438C113.25 41.0521 113.219 41.3438 113.219 41.7188C113.219 42.8646 113.531 43.4375 114.156 43.4375C114.781 43.4375 115.521 43.1458 116.375 42.5625C117.229 41.9583 117.99 41.3229 118.656 40.6562C119.323 39.9688 119.969 39.2708 120.594 38.5625C121.24 37.8542 121.625 37.4479 121.75 37.3438C121.875 37.2396 122.062 37.1875 122.312 37.1875C122.708 37.1875 122.948 37.4896 123.031 38.0938C123.115 38.6979 123.156 39.3229 123.156 39.9688C123.156 40.6146 123.094 41.0625 122.969 41.3125C122.365 42.5 121.031 43.9271 118.969 45.5938C116.927 47.2604 115.062 48.0938 113.375 48.0938C111.708 48.0938 110.479 47.5833 109.688 46.5625C108.896 45.5417 108.5 44.4167 108.5 43.1875C108.5 41.9375 108.708 40.8438 109.125 39.9062C107.396 42.1562 105.406 44.0625 103.156 45.625C100.927 47.1875 99.1042 47.9688 97.6875 47.9688C96.2708 47.9688 95.1146 47.5417 94.2188 46.6875C93.0729 45.625 92.5 44.1562 92.5 42.2812C92.5 40.3854 92.9167 38.4896 93.75 36.5938C94.6042 34.6771 95.7188 32.9375 97.0938 31.375C98.4688 29.7917 99.9792 28.3542 101.625 27.0625C105.083 24.3542 108.271 23 111.188 23C112.312 23 113.229 23.1875 113.938 23.5625C114.646 23.9375 115.094 24.4062 115.281 24.9688C115.781 24.2188 116.198 23.75 116.531 23.5625C116.885 23.3542 117.406 23.25 118.094 23.25ZM113.938 26.7188C110.375 26.7188 106.688 28.6979 102.875 32.6562C101.521 34.0729 100.271 35.7708 99.125 37.75C98 39.7292 97.4375 41.0833 97.4375 41.8125C97.4375 42.5417 97.6458 42.9062 98.0625 42.9062C98.6458 42.9062 100.271 41.7604 102.938 39.4688C105.604 37.1562 107.375 35.4583 108.25 34.375C109.208 33.1667 111.104 30.6146 113.938 26.7188ZM159.562 0.15625C159.958 0.15625 160.271 0.28125 160.5 0.53125C160.729 0.78125 160.844 1.04167 160.844 1.3125C160.844 1.5625 160.635 2.04167 160.219 2.75C159.823 3.4375 158.896 4.95833 157.438 7.3125C155.979 9.64583 154.844 11.4792 154.031 12.8125C149.302 20.5 145.594 27 142.906 32.3125C140.219 37.625 138.875 40.8333 138.875 41.9375V42.1875C138.875 43.0417 139.188 43.4688 139.812 43.4688C140.438 43.4688 141.188 43.1771 142.062 42.5938C142.958 42.0104 143.74 41.3854 144.406 40.7188C145.073 40.0521 145.74 39.3646 146.406 38.6562C147.094 37.9271 147.51 37.5 147.656 37.375C147.802 37.25 147.99 37.1875 148.219 37.1875C148.573 37.1875 148.802 37.4167 148.906 37.875C149.01 38.3125 149.062 38.9375 149.062 39.75C149.062 40.5417 149 41.0625 148.875 41.3125C148.271 42.4792 146.938 43.9062 144.875 45.5938C142.833 47.2604 140.896 48.0938 139.062 48.0938C135.938 48.0938 134.375 46.7708 134.375 44.125C134.375 42.4792 135 40.3229 136.25 37.6562C134.562 39.8438 132.844 41.7083 131.094 43.25C127.844 46.0833 125.021 47.5 122.625 47.5C121.292 47.5 120.302 47.0312 119.656 46.0938C119.031 45.1562 118.719 43.8125 118.719 42.0625C118.719 40.2917 119.406 38.1771 120.781 35.7188C122.156 33.2604 123.865 31.0521 125.906 29.0938C127.969 27.1146 130.25 25.4688 132.75 24.1562C135.25 22.8229 137.552 22.1562 139.656 22.1562C140.323 22.1562 141.104 22.5625 142 23.375C142.604 22.4167 143.719 20.5 145.344 17.625C150.448 9.02083 153.823 3.77083 155.469 1.875C156.344 0.729167 157.708 0.15625 159.562 0.15625ZM140.094 26.3125C137.094 26.9792 134.302 28.375 131.719 30.5C129.135 32.625 127.198 34.8542 125.906 37.1875C124.615 39.5 123.969 41 123.969 41.6875C123.969 42.375 124.115 42.7188 124.406 42.7188C125.656 42.7188 128.75 39.9271 133.688 34.3438C136.146 31.5938 138.281 28.9167 140.094 26.3125ZM168.188 23.625C168.188 25 167.625 26.2083 166.5 27.25C165.396 28.2917 164.135 28.8125 162.719 28.8125C162.26 28.8125 161.958 28.7083 161.812 28.5C161.667 28.2708 161.594 27.9792 161.594 27.625C161.594 27.2708 161.635 26.9271 161.719 26.5938C160.969 26.8438 160.135 27.2292 159.219 27.75C158.302 28.2708 157.177 29.0417 155.844 30.0625C154.51 31.0833 153.844 31.8438 153.844 32.3438C153.844 32.5104 154.083 32.5938 154.562 32.5938C155.062 32.5938 155.823 32.4271 156.844 32.0938C157.865 31.7396 158.573 31.5625 158.969 31.5625C159.385 31.5625 159.656 31.5833 159.781 31.625C160.052 31.7708 160.344 32.0938 160.656 32.5938C160.969 33.0729 161.125 33.4583 161.125 33.75C161.125 34.0208 160.854 34.3854 160.312 34.8438C159.771 35.3021 159.156 35.6562 158.469 35.9062C157.781 36.1354 157.323 36.3125 157.094 36.4375C152.698 38.8958 150.5 40.5833 150.5 41.5C150.5 43.125 151.885 43.9375 154.656 43.9375C156.427 43.9375 158.208 43.375 160 42.25C161.521 41.2917 162.885 40.3229 164.094 39.3438C165.323 38.3438 166.094 37.7292 166.406 37.5C166.74 37.2708 166.99 37.1562 167.156 37.1562C167.698 37.1562 167.969 37.7604 167.969 38.9688C167.969 40.1771 167.896 40.9792 167.75 41.375C167.604 41.75 167.188 42.2188 166.5 42.7812C162.042 46.4062 157.823 48.2188 153.844 48.2188C151.719 48.2188 150.021 47.9271 148.75 47.3438C146.417 46.2812 145.25 44.6562 145.25 42.4688C145.25 39.5938 147.24 37.4167 151.219 35.9375C150.427 35.5833 149.917 35.1354 149.688 34.5938C149.458 34.0312 149.344 33.1458 149.344 31.9375C149.344 30.7083 149.906 29.4167 151.031 28.0625C152.177 26.6875 153.573 25.5625 155.219 24.6875C158.885 22.7083 162.156 21.7188 165.031 21.7188C165.719 21.7188 166.417 21.8854 167.125 22.2188C167.833 22.5521 168.188 23.0208 168.188 23.625Z" fill="#188AEC"/>
<path d="M169.75 46.6875C169.75 45.4167 170.25 44.2917 171.25 43.3125C172.25 42.3125 173.229 41.8125 174.188 41.8125C175.917 41.8125 176.781 42.5208 176.781 43.9375C176.781 45.1042 176.292 46.2292 175.312 47.3125C174.333 48.4167 173.229 48.9688 172 48.9688C170.5 48.9688 169.75 48.2083 169.75 46.6875Z" fill="#EC4899"/>
</svg>
