<svg width="46" height="46" viewBox="0 0 46 46" fill="none" xmlns="http://www.w3.org/2000/svg">
<path d="M23 0.25C10.4547 0.25 0.25 10.4547 0.25 23C0.25 35.5453 10.4547 45.75 23 45.75C35.5453 45.75 45.75 35.5453 45.75 23C45.75 10.4547 35.5453 0.25 23 0.25ZM38.0445 10.7391C40.7516 14.0477 42.3922 18.2586 42.4305 22.8469C41.7906 22.7102 35.3648 21.4086 28.9008 22.2234C28.7641 21.8898 28.6273 21.5562 28.4852 21.2227C28.0805 20.2766 27.6484 19.3305 27.1945 18.4062C34.375 15.4695 37.6344 11.2969 38.0445 10.7391ZM23 3.59687C27.9383 3.59687 32.45 5.45078 35.8789 8.49141C35.5289 8.98906 32.6031 12.9211 25.6961 15.5133C22.5133 9.66172 18.9859 4.86016 18.4445 4.13828C19.9375 3.77734 21.4633 3.59687 23 3.59687ZM14.7367 5.44531C15.2508 6.14531 18.7234 10.9633 21.9391 16.6836C12.85 19.0953 4.84375 19.0625 3.97422 19.0516C5.2375 13.0195 9.30078 8.01016 14.7367 5.44531ZM3.56953 23.0273C3.56953 22.8305 3.575 22.6281 3.58047 22.4312C4.42812 22.4477 13.8453 22.568 23.5523 19.6641C24.1102 20.7523 24.6406 21.857 25.1273 22.9617C24.8703 23.0328 24.6133 23.1094 24.3617 23.1914C14.3375 26.4398 9.00547 35.2719 8.5625 36.0211C5.46172 32.5758 3.56953 28.0203 3.56953 23.0273ZM23 42.4578C18.5047 42.4578 14.3648 40.9266 11.0727 38.3563C11.4227 37.6398 15.3547 30.0438 26.3141 26.2211L26.4398 26.1773C29.1688 33.2648 30.2953 39.2094 30.5852 40.9156C28.188 41.9402 25.607 42.465 23 42.4578ZM33.8555 39.1383C33.6586 37.957 32.625 32.2695 30.082 25.2859C36.1742 24.3125 41.5227 25.9094 42.1844 26.1172C41.3203 31.5203 38.2195 36.1906 33.8555 39.1383Z" fill="#D1D5DB"/>
</svg>
