<svg width="54" height="44" viewBox="0 0 54 44" fill="none" xmlns="http://www.w3.org/2000/svg">
<path d="M53.167 5.51964C51.2187 6.38298 49.1257 6.96631 46.9253 7.22998C49.1957 5.87149 50.8942 3.7334 51.704 1.21464C49.571 2.48162 47.2365 3.37343 44.802 3.85131C43.1649 2.10333 40.9965 0.944737 38.6334 0.555416C36.2704 0.166094 33.8449 0.567823 31.7336 1.69823C29.6222 2.82864 27.9432 4.62449 26.957 6.80695C25.9709 8.98942 25.7329 11.4364 26.28 13.768C21.9579 13.551 17.7298 12.4276 13.87 10.4708C10.0102 8.51392 6.60497 5.76735 3.87534 2.40931C2.94201 4.01931 2.40534 5.88598 2.40534 7.87398C2.4043 9.66363 2.84502 11.4259 3.68839 13.0044C4.53176 14.5828 5.75172 15.9287 7.24001 16.9226C5.51399 16.8677 3.82604 16.4013 2.31667 15.5623V15.7023C2.3165 18.2124 3.18475 20.6452 4.7741 22.588C6.36345 24.5307 8.57601 25.8638 11.0363 26.361C9.43517 26.7943 7.75646 26.8581 6.12701 26.5476C6.82117 28.7074 8.17333 30.596 9.9942 31.9491C11.8151 33.3022 14.0135 34.0521 16.2817 34.0936C12.4313 37.1163 7.67608 38.7559 2.78101 38.7486C1.9139 38.7489 1.04752 38.6982 0.18634 38.597C5.15512 41.7917 10.9391 43.4872 16.8463 43.4806C36.843 43.4806 47.7747 26.9186 47.7747 12.5546C47.7747 12.088 47.763 11.6166 47.742 11.15C49.8684 9.61225 51.7038 7.70807 53.1623 5.52664L53.167 5.51964Z" fill="#D1D5DB"/>
</svg>
